<?xml version="1.0" encoding="utf-8"?>
<!-- Generator: Adobe Illustrator 26.0.3, SVG Export Plug-In . SVG Version: 6.00 Build 0)  -->
<svg version="1.1" id="Capa_1" xmlns="http://www.w3.org/2000/svg" xmlns:xlink="http://www.w3.org/1999/xlink" x="0px" y="0px"
	 viewBox="0 0 217.3 142.9" style="enable-background:new 0 0 217.3 142.9;" xml:space="preserve">
<style type="text/css">
	.st0{fill:#C5302C;}
	.st1{fill:#7A6BBB;}
</style>
<g>
	<path class="st0" d="M59.1,111.3c-0.7-0.6-1.5-1.2-2.2-1.8c-1.6-1.4-3.3-2.8-4.8-4.3c-1.4-1.4-2.7-2.7-4-4.2
		c-1.1-1.3-2.2-2.7-3.2-4.1c-0.9-1.3-1.7-2.7-2.2-4.2c-0.4-1.1-0.7-2.3-0.7-3.5c0-1.8,0.6-3.5,1.6-5c1.1-1.8,2.7-3.1,4.8-3.6
		c3.2-0.8,6,0.1,8.3,2.4c1.1,1.1,1.8,2.4,2.3,3.9c0,0.1,0.1,0.2,0.1,0.3c0.2-0.5,0.4-1,0.6-1.5c0.9-1.9,2.3-3.5,4.2-4.4
		c3.8-1.9,8.3-0.8,10.6,2.7c1,1.5,1.6,3.3,1.7,5.1c0,1.1-0.2,2.1-0.5,3.1c-0.5,1.6-1.3,3-2.2,4.4c-0.9,1.5-2.1,2.9-3.2,4.3
		c-1.2,1.5-2.6,2.8-4,4.2c-1.5,1.5-3.1,2.8-4.6,4.2c-0.8,0.7-1.6,1.4-2.4,2C59.2,111.2,59.2,111.3,59.1,111.3z"/>
	<path d="M9.7,108.8V82.9h3.2v25.9H9.7z"/>
	<path d="M35.9,105.7h11.4v3H32.7V82.9h3.2V105.7z"/>
	<path d="M96.2,82.9h3.6l-10.3,25.9h-3L76,82.9h3.6l8.4,21L96.2,82.9z"/>
	<path d="M104.3,105.7h11.8v3.1H101V82.9h14.7V86h-11.4v8h10.5v3h-10.5V105.7z"/>
	<path d="M144.4,82.9c2.4,0,4.5,0.8,6.1,2.4s2.5,3.6,2.5,5.9s-0.8,4.3-2.5,5.9c-1.7,1.6-3.7,2.4-6.1,2.4h-6.1v9.3h-3.2V82.9H144.4z
		 M144.3,96.3c1.6,0,2.9-0.5,3.9-1.5s1.5-2.2,1.5-3.7s-0.5-2.7-1.5-3.7s-2.3-1.5-3.9-1.5h-5.9v10.4H144.3z"/>
	<path d="M158,105.7h11.8v3.1h-15.1V82.9h14.7V86H158v8h10.5v3H158V105.7z"/>
	<path d="M190.4,82.9V86h-7.9v22.9h-3.3v-23h-7.9v-3.1L190.4,82.9L190.4,82.9z"/>
	<path d="M200.2,109.1c-2.9,0-5.2-0.8-6.9-2.3c-1.8-1.5-2.6-3.5-2.6-6.1h3.3c0,1.6,0.6,2.8,1.7,3.7c1.2,0.9,2.7,1.4,4.5,1.4
		c1.7,0,3-0.4,4.2-1.2c1.1-0.8,1.7-1.9,1.7-3.2c0-0.3,0-0.6-0.1-0.9s-0.2-0.6-0.3-0.8c-0.1-0.2-0.3-0.4-0.5-0.6
		c-0.2-0.2-0.4-0.4-0.6-0.5s-0.5-0.3-0.8-0.4c-0.3-0.1-0.7-0.3-0.9-0.4c-0.2-0.1-0.6-0.2-1-0.3s-0.8-0.2-1-0.3s-0.6-0.2-1.1-0.3
		c-2.2-0.5-3.8-1-4.7-1.5c-2.1-1-3.3-2.5-3.6-4.5c-0.1-0.4-0.1-0.8-0.1-1.2c0-2.2,0.8-4,2.4-5.3c1.6-1.3,3.7-1.9,6.4-1.9
		c2.7,0,4.8,0.7,6.3,2.1s2.3,3.2,2.3,5.6h-3.2c0-1.4-0.5-2.5-1.5-3.3c-1-0.8-2.4-1.2-4-1.2s-2.9,0.4-3.9,1.1s-1.5,1.7-1.5,2.9
		c0,0.4,0.1,0.8,0.2,1.1c0.1,0.3,0.3,0.6,0.5,0.9c0.2,0.2,0.4,0.5,0.8,0.7c0.3,0.2,0.7,0.4,1,0.5s0.7,0.3,1.2,0.4
		c0.5,0.2,0.9,0.3,1.3,0.4c0.3,0.1,0.8,0.2,1.4,0.3c2.2,0.5,3.8,1,4.7,1.5c2.1,1,3.4,2.5,3.8,4.5c0.1,0.5,0.1,1,0.1,1.5
		c0,1.6-0.4,3-1.2,4.1c-0.8,1.2-1.9,2.1-3.3,2.6C203.5,108.8,201.9,109.1,200.2,109.1z"/>
	<g>
		<path d="M54,114.8c1.4,0,2.5,0.4,3.5,1.3c0.9,0.9,1.4,2,1.4,3.4s-0.5,2.5-1.4,3.4s-2.1,1.3-3.5,1.3h-3.4v5.3h-1.8v-14.7H54z
			 M53.9,122.4c0.9,0,1.6-0.3,2.2-0.8c0.6-0.6,0.9-1.3,0.9-2.1s-0.3-1.5-0.9-2.1c-0.6-0.6-1.3-0.8-2.2-0.8h-3.3v5.9L53.9,122.4
			L53.9,122.4z"/>
		<path d="M66.5,118.1h1v1.7h-1.2c-1,0-1.8,0.3-2.4,0.9c-0.6,0.6-0.9,1.5-0.9,2.6v6.2h-1.8v-11.4h1.3l0.3,1.7
			C63.7,118.7,64.9,118.1,66.5,118.1z"/>
		<path d="M74.2,129.7c-1.7,0-3.1-0.6-4.3-1.7c-1.1-1.1-1.7-2.5-1.7-4.2c0-1.1,0.3-2.1,0.8-3s1.2-1.6,2.2-2.1
			c0.9-0.5,1.9-0.8,3.1-0.8s2.2,0.3,3.1,0.8c0.9,0.5,1.6,1.2,2.2,2.1c0.5,0.9,0.8,1.9,0.8,3s-0.3,2.1-0.8,3s-1.2,1.6-2.2,2.1
			C76.4,129.5,75.3,129.7,74.2,129.7z M71.2,126.8c0.8,0.8,1.8,1.2,3,1.2s2.2-0.4,3-1.2c0.8-0.8,1.2-1.8,1.2-3s-0.4-2.2-1.2-3
			s-1.8-1.2-3-1.2s-2.2,0.4-3,1.2c-0.8,0.8-1.2,1.8-1.2,3S70.4,126,71.2,126.8z"/>
		<path d="M87.5,127.8h1.2v1.7h-1.5c-1.2,0-2.2-0.4-2.9-1.1c-0.7-0.7-1.1-1.7-1.1-2.9v-5.8h-2v-0.3l3.5-3.7H85v2.4h3.6v1.6H85v5.7
			c0,0.8,0.2,1.4,0.6,1.8C86.1,127.6,86.7,127.8,87.5,127.8z"/>
		<path d="M101.6,123.9c0,0.2,0,0.4,0,0.6h-9.7c0.1,1.1,0.6,1.9,1.3,2.5s1.6,1,2.7,1c0.8,0,1.5-0.2,2.1-0.5s1.1-0.8,1.4-1.4h1.9
			c-0.5,1.2-1.2,2.1-2.1,2.7c-0.9,0.7-2,1-3.3,1c-1.1,0-2.1-0.3-2.9-0.8c-0.9-0.5-1.6-1.2-2.1-2.1s-0.8-1.9-0.8-3s0.3-2.1,0.8-3
			s1.2-1.6,2.1-2.1c0.9-0.5,1.9-0.8,2.9-0.8c1.1,0,2.1,0.3,3,0.8s1.5,1.3,2,2.2C101.3,121.8,101.6,122.8,101.6,123.9z M95.9,119.6
			c-1,0-1.9,0.3-2.6,0.9c-0.7,0.6-1.2,1.4-1.3,2.4h7.9c-0.2-1-0.6-1.8-1.3-2.4C97.7,119.9,96.9,119.6,95.9,119.6z"/>
		<path d="M109.2,129.7c-1.1,0-2.1-0.3-3-0.8s-1.6-1.2-2.1-2.1s-0.8-1.9-0.8-3s0.3-2.1,0.8-3s1.2-1.6,2.1-2.1c0.9-0.5,1.9-0.8,3-0.8
			c1.3,0,2.5,0.4,3.5,1.1s1.7,1.7,2,3H113c-0.3-0.7-0.8-1.3-1.5-1.7s-1.4-0.6-2.2-0.6c-1.2,0-2.1,0.4-2.9,1.2
			c-0.8,0.8-1.2,1.8-1.2,3s0.4,2.2,1.2,3s1.7,1.2,2.9,1.2c0.8,0,1.6-0.2,2.2-0.6s1.1-1,1.5-1.8h1.8c-0.3,1.3-1,2.3-2,3
			C111.7,129.3,110.6,129.7,109.2,129.7z"/>
		<path d="M121.9,127.8h1.2v1.7h-1.5c-1.2,0-2.2-0.4-2.9-1.1c-0.7-0.7-1.1-1.7-1.1-2.9v-5.8h-2v-0.3l3.5-3.7h0.3v2.4h3.6v1.6h-3.6
			v5.7c0,0.8,0.2,1.4,0.6,1.8C120.6,127.6,121.2,127.8,121.9,127.8z"/>
		<path d="M130.5,129.7c-1.7,0-3.1-0.6-4.3-1.7c-1.1-1.1-1.7-2.5-1.7-4.2c0-1.1,0.3-2.1,0.8-3s1.2-1.6,2.2-2.1
			c0.9-0.5,1.9-0.8,3.1-0.8s2.2,0.3,3.1,0.8c0.9,0.5,1.6,1.2,2.2,2.1c0.5,0.9,0.8,1.9,0.8,3s-0.3,2.1-0.8,3s-1.2,1.6-2.2,2.1
			C132.7,129.5,131.7,129.7,130.5,129.7z M127.5,126.8c0.8,0.8,1.8,1.2,3,1.2s2.2-0.4,3-1.2c0.8-0.8,1.2-1.8,1.2-3s-0.4-2.2-1.2-3
			s-1.8-1.2-3-1.2s-2.2,0.4-3,1.2c-0.8,0.8-1.2,1.8-1.2,3S126.7,126,127.5,126.8z"/>
		<path d="M144.4,118.1h1v1.7h-1.2c-1,0-1.8,0.3-2.4,0.9c-0.6,0.6-0.9,1.5-0.9,2.6v6.2h-1.8v-11.4h1.3l0.3,1.7
			C141.6,118.7,142.8,118.1,144.4,118.1z"/>
		<path d="M156.7,118.1h1.4v11.3h-1.5l-0.2-1.7c-0.5,0.6-1.2,1.1-1.9,1.5c-0.8,0.3-1.6,0.5-2.5,0.5c-1.1,0-2.1-0.3-3-0.8
			s-1.6-1.2-2.1-2.1s-0.8-1.9-0.8-3c0-1.7,0.6-3.1,1.7-4.2c1.1-1.1,2.5-1.7,4.2-1.7c0.9,0,1.8,0.2,2.5,0.5c0.8,0.3,1.4,0.8,2,1.5
			L156.7,118.1z M149.1,126.8c0.8,0.8,1.8,1.2,3,1.2s2.2-0.4,3-1.2c0.8-0.8,1.2-1.8,1.2-3s-0.4-2.2-1.2-3s-1.8-1.2-3-1.2
			s-2.2,0.4-3,1.2c-0.8,0.8-1.2,1.8-1.2,3S148.3,126,149.1,126.8z"/>
		<path d="M165.2,129.7c-1.3,0-2.4-0.3-3.2-1c-0.8-0.7-1.2-1.6-1.3-2.7h1.7c0,0.7,0.3,1.2,0.8,1.5c0.5,0.4,1.2,0.5,2,0.5
			s1.4-0.2,1.9-0.5s0.7-0.7,0.7-1.3c0-0.2,0-0.4-0.1-0.6s-0.2-0.3-0.3-0.4c-0.2-0.1-0.3-0.2-0.5-0.3c-0.2-0.1-0.4-0.2-0.6-0.2
			c-0.3-0.1-0.5-0.1-0.7-0.2c-0.2,0-0.4-0.1-0.8-0.1c-0.3,0-0.4-0.1-0.6-0.1c-0.1,0-0.3-0.1-0.6-0.1c-0.2-0.1-0.4-0.1-0.6-0.2
			s-0.3-0.1-0.5-0.2s-0.4-0.2-0.5-0.2c-0.1-0.1-0.3-0.2-0.4-0.3c-0.2-0.1-0.3-0.3-0.4-0.4c-0.1-0.1-0.2-0.3-0.3-0.5
			s-0.2-0.4-0.2-0.6s-0.1-0.5-0.1-0.7c0-1,0.4-1.8,1.2-2.4s1.8-0.9,3.1-0.9s2.3,0.3,3.1,0.9s1.2,1.5,1.2,2.6h-1.7
			c0-0.6-0.3-1.1-0.7-1.4c-0.5-0.3-1.1-0.5-1.9-0.5c-0.8,0-1.4,0.1-1.8,0.4c-0.5,0.3-0.7,0.7-0.7,1.2c0,0.2,0,0.4,0.1,0.5
			c0.1,0.2,0.2,0.3,0.3,0.4s0.3,0.2,0.4,0.3s0.3,0.1,0.6,0.2s0.5,0.1,0.6,0.1c0.2,0,0.4,0.1,0.7,0.1c1.1,0.2,1.9,0.4,2.4,0.6
			c1.1,0.5,1.7,1.3,1.8,2.5c0,0.1,0,0.3,0,0.4c0,1.1-0.4,1.9-1.2,2.5C167.7,129.4,166.6,129.7,165.2,129.7z"/>
	</g>
</g>
<g>
	<path class="st1" d="M110.7,35.3c2.6-0.1,5.2,1.1,7.4,2.9c0.8,0.6,1.5,1.3,2.2,2c2.2,2.2,3.9,4.8,5.6,7.4c1.2,1.9,2.1,3.8,2.7,6
		c0.3,1,0.4,2.1,0.2,3.1c-0.4,2-1.7,3.1-3.5,3.7c-1.4,0.4-2.8,0.3-4.2-0.2c-1.6-0.5-3.1-1.2-4.6-1.8c-1.9-0.7-3.8-1.2-5.8-1
		s-3.9,0.7-5.7,1.4c-1.6,0.6-3.1,1.2-4.8,1.5c-1.4,0.3-2.7,0.4-4.1-0.2C93.4,59,92,56,92.8,53.3c0.4-1.4,0.7-2.9,1.3-4.2
		c1.2-2.8,2.7-5.5,4.6-7.9c1.1-1.4,2.4-2.6,4-3.6C105,36.2,107.6,35.3,110.7,35.3z"/>
	<path class="st1" d="M111.1,19.2c0-1.1,0.2-2.6,0.6-4c0.8-2.3,1.9-4.4,3.9-5.9c1-0.7,2.1-1.3,3.3-1.4c2-0.1,3.5,0.8,4.7,2.3
		c1.1,1.3,1.6,2.8,1.8,4.5c0.3,2.4,0.1,4.6-0.8,6.9c-0.8,2-1.9,3.7-3.6,5c-0.8,0.6-1.8,1.1-2.8,1.3c-1.4,0.3-2.7-0.1-3.8-0.9
		c-1-0.6-1.6-1.5-2.2-2.5C111.5,23,111.1,21.3,111.1,19.2z"/>
	<path class="st1" d="M107.9,20.7c0,1.2-0.4,3.2-1.6,4.9c-1,1.5-2.4,2.3-4.2,2.5c-1,0.1-1.9-0.3-2.8-0.8c-2.5-1.4-4-3.5-5-6.1
		c-0.6-1.6-0.9-3.3-0.9-5c0-1.3,0.1-2.5,0.6-3.7c0.6-1.4,1.4-2.6,2.7-3.5c1.5-1,3.2-1.1,4.8-0.4c2.5,1,4,2.9,5.1,5.3
		C107.5,15.9,107.9,17.8,107.9,20.7z"/>
	<path class="st1" d="M137.2,30.3c-0.1,3.6-1.1,6.6-3.5,9.1c-1.5,1.5-3.2,2.4-5.4,2.5c-1.6,0.1-3-0.7-3.9-1.9
		c-1.4-1.8-1.8-3.8-1.5-6c0.2-1.7,0.7-3.4,1.5-4.9c1.1-2,2.6-3.7,4.8-4.6c0.8-0.4,1.8-0.6,2.7-0.6c1.4,0,2.6,0.7,3.5,1.7
		C136.7,26.9,137.2,28.6,137.2,30.3z"/>
	<path class="st1" d="M82.2,31.5c0-1.2,0.2-2.4,0.6-3.6c0.8-1.9,2.4-2.8,4.5-3c1.4-0.1,2.6,0.4,3.7,1.1c1.1,0.7,2,1.6,2.9,2.6
		c1.5,1.8,2.3,3.8,2.6,6c0.3,1.8,0.2,3.7-0.7,5.4c-1,1.8-2.5,2.8-4.5,2.7c-1.2,0-2.2-0.5-3.3-1.1c-0.9-0.5-1.7-1.2-2.5-2
		C83.3,37.4,82.4,34.6,82.2,31.5z"/>
</g>
</svg>
