<?xml version="1.0" encoding="utf-8"?>
<!-- Generator: Adobe Illustrator 26.0.3, SVG Export Plug-In . SVG Version: 6.00 Build 0)  -->
<svg version="1.1" id="Capa_1" xmlns="http://www.w3.org/2000/svg" xmlns:xlink="http://www.w3.org/1999/xlink" x="0px" y="0px"
	 viewBox="0 0 34.2 31" style="enable-background:new 0 0 34.2 31;" xml:space="preserve">
<style type="text/css">
	.st0{fill:#C5302C;}
</style>
<path class="st0" d="M17.1,31c-3.9-3.2-7.7-6.5-11-10.3c-2.1-2.5-4.3-5.2-5.4-8.3c-1.1-2.8-0.9-6,0.9-8.5C5.6-2.6,15-0.4,17,6.6
	c0,0.1,0.1,0.2,0.1,0.3c0.2-0.5,0.4-1,0.6-1.5C18.6,3.5,20,1.9,21.9,1C27.8-2,34,2.5,34.2,8.8c0,2.8-1.2,5.2-2.7,7.5
	C28.4,21.2,24,25.2,19.7,29c-0.8,0.7-1.6,1.4-2.4,2C17.2,30.9,17.2,31,17.1,31z"/>
</svg>
